<svg width="48" height="48" viewBox="0 0 48 48" fill="none" xmlns="http://www.w3.org/2000/svg">
<g clip-path="url(#clip0_1125_242)">
<rect width="48" height="48" rx="11" fill="url(#paint0_linear_1125_242)"/>
<circle cx="42.5" cy="57.5" r="44.5" fill="black" fill-opacity="0.1"/>
<circle cx="54.5" cy="70.5" r="44.5" fill="black" fill-opacity="0.05"/>
<path fill-rule="evenodd" clip-rule="evenodd" d="M14.8475 10.0834C14.0327 10.3353 13.3566 10.9992 13.1033 11.7961C13.0048 12.106 13 12.6936 13 24.4984C13 36.3032 13.0048 36.8908 13.1033 37.2007C13.3588 38.0045 14.0419 38.6714 14.8569 38.9125C15.1178 38.9897 16.1894 39 24 39C31.8106 39 32.8822 38.9897 33.1431 38.9125C33.9581 38.6714 34.6412 38.0045 34.8967 37.2007C34.9952 36.8908 35 36.3032 35 24.4984C35 12.6936 34.9952 12.106 34.8967 11.7961C34.6412 10.9922 33.9581 10.3254 33.1431 10.0842C32.882 10.007 31.8156 9.99721 23.9754 10.0006C16.5508 10.0037 15.0616 10.0173 14.8475 10.0834ZM31.3911 14.4531C31.6904 14.6293 31.7028 14.7037 31.7028 16.3173C31.7028 17.7392 31.6975 17.8129 31.5838 17.9657C31.5184 18.0537 31.3777 18.156 31.2711 18.1932C30.9918 18.2907 17.2356 18.2907 16.9562 18.1932C16.8497 18.156 16.709 18.0537 16.6436 17.9657C16.5299 17.8129 16.5245 17.7392 16.5245 16.3173C16.5245 14.7127 16.5372 14.6349 16.8268 14.4559C16.9669 14.3693 17.5586 14.3615 24.1049 14.3601C30.6596 14.3587 31.2434 14.3662 31.3911 14.4531ZM19.0994 21.5701C19.4551 21.7627 19.5086 21.9315 19.5088 22.8614C19.509 23.6273 19.4995 23.7028 19.38 23.881C19.1481 24.227 18.9777 24.2716 17.888 24.2717C16.7544 24.2718 16.6079 24.2271 16.3966 23.8166C16.2844 23.5985 16.2687 23.4825 16.2687 22.8701C16.2687 22.1128 16.3219 21.902 16.5704 21.6738C16.7846 21.477 16.9956 21.4451 18.0026 21.4575C18.7544 21.4667 18.9446 21.4863 19.0994 21.5701ZM25.1918 21.583C25.5593 21.7982 25.6202 21.9844 25.6202 22.894C25.6202 23.7858 25.5893 23.8765 25.1944 24.1443C25.0169 24.2647 24.9502 24.2718 24 24.2718C23.0499 24.2718 22.9831 24.2647 22.8056 24.1443C22.4368 23.8942 22.3885 23.7738 22.3624 23.0397C22.3365 22.308 22.3959 21.9784 22.595 21.7496C22.8205 21.4903 23.0833 21.4381 24.0853 21.4537C24.882 21.466 25.0193 21.482 25.1918 21.583ZM31.3115 21.5846C31.6688 21.8505 31.7014 21.9467 31.7198 22.7887C31.7354 23.5048 31.7268 23.5827 31.6061 23.8144C31.3909 24.2275 31.246 24.2718 30.112 24.2717C29.0223 24.2716 28.8519 24.227 28.62 23.881C28.5007 23.7032 28.491 23.6266 28.491 22.8727C28.491 21.5283 28.6112 21.4287 30.2065 21.4532C31.0623 21.4664 31.1698 21.4792 31.3115 21.5846ZM19.0531 27.0334C19.1619 27.0879 19.3091 27.2191 19.38 27.325C19.4995 27.5032 19.509 27.5787 19.5088 28.3446C19.5086 29.065 19.4943 29.1951 19.3976 29.3531C19.1857 29.6995 19.0329 29.7382 17.8788 29.7382C16.9238 29.7382 16.8336 29.7294 16.6885 29.6214C16.3329 29.3568 16.2987 29.2575 16.2785 28.4301C16.2616 27.7405 16.2717 27.6436 16.3839 27.4128C16.5898 26.9888 16.7452 26.9396 17.8889 26.9368C18.6989 26.9348 18.8873 26.9504 19.0531 27.0334ZM25.2289 27.0793C25.5955 27.3524 25.6202 27.4318 25.6202 28.3403C25.6202 29.109 25.6106 29.1851 25.4937 29.3484C25.2268 29.7213 25.1618 29.7382 24 29.7382C23.0641 29.7382 22.9309 29.7265 22.7905 29.6316C22.4708 29.4156 22.3925 29.2325 22.3635 28.6325C22.3262 27.8606 22.3821 27.4838 22.566 27.266C22.8231 26.9615 22.9556 26.9335 24.0671 26.9488C24.9813 26.9613 25.0864 26.9731 25.2289 27.0793ZM31.2727 27.0456C31.4253 27.1231 31.5296 27.2347 31.616 27.4125C31.7284 27.6437 31.7384 27.7403 31.7215 28.4301C31.7013 29.2575 31.6671 29.3568 31.3115 29.6214C31.1664 29.7294 31.0762 29.7382 30.1212 29.7382C28.9671 29.7382 28.8143 29.6995 28.6024 29.3531C28.5057 29.1951 28.4914 29.065 28.4912 28.3446C28.491 27.5787 28.5005 27.5032 28.62 27.325C28.8514 26.9799 29.0235 26.9344 30.0992 26.9343C30.9361 26.9342 31.0806 26.9479 31.2727 27.0456ZM19.0874 32.5199C19.1933 32.57 19.3332 32.697 19.3985 32.8022C19.5078 32.9784 19.5156 33.0623 19.4989 33.8716L19.4806 34.7499L19.2666 34.9631L19.0526 35.1763L17.9581 35.1937C16.8942 35.2107 16.8583 35.2075 16.6714 35.0804C16.3314 34.8493 16.2687 34.6525 16.2688 33.8177C16.2689 32.9793 16.332 32.7764 16.6609 32.5575C16.8437 32.4358 16.9082 32.429 17.8745 32.429C18.6939 32.429 18.9329 32.4469 19.0874 32.5199ZM31.3391 32.5575C31.668 32.7764 31.7311 32.9793 31.7312 33.8177C31.7313 34.65 31.6683 34.8494 31.3334 35.0772L31.146 35.2047H27.0747C23.2119 35.2047 22.9932 35.1993 22.8053 35.0991C22.4422 34.9057 22.3798 34.7177 22.3798 33.8168C22.3798 32.926 22.4359 32.7407 22.7664 32.54C22.9424 32.433 23.0821 32.4294 27.0471 32.4292L31.146 32.429L31.3391 32.5575Z" fill="white"/>
</g>
<defs>
<linearGradient id="paint0_linear_1125_242" x1="24" y1="0" x2="24" y2="48" gradientUnits="userSpaceOnUse">
<stop stop-color="#8FAFFF"/>
<stop offset="1" stop-color="#458BBE"/>
</linearGradient>
<clipPath id="clip0_1125_242">
<rect width="48" height="48" rx="11" fill="white"/>
</clipPath>
</defs>
</svg>
