<svg width="48" height="48" viewBox="0 0 48 48" fill="none" xmlns="http://www.w3.org/2000/svg">
<g clip-path="url(#clip0_1125_218)">
<rect width="48" height="48" rx="11" fill="url(#paint0_linear_1125_218)"/>
<circle cx="42.5" cy="57.5" r="44.5" fill="black" fill-opacity="0.1"/>
<circle cx="54.5" cy="70.5" r="44.5" fill="black" fill-opacity="0.05"/>
<path fill-rule="evenodd" clip-rule="evenodd" d="M16.359 11.1552C16.1437 11.2676 16.0176 11.3832 15.8962 11.5794C15.7337 11.8422 15.729 11.8695 15.7108 12.6598L15.6921 13.4706L15.2682 13.595C13.4298 14.1347 11.9652 15.5249 11.3356 17.3279C10.9924 18.3103 11 18.1339 11 25.1621C11 32.0403 10.9993 32.0221 11.2849 32.9067C11.533 33.6754 12.0197 34.4971 12.6081 35.1409C13.1896 35.7773 14.2218 36.4307 15.0933 36.7144C15.9718 37.0004 15.9708 37.0003 22.6649 37C26.9337 36.9998 28.9641 36.9809 29.1157 36.9402C29.3061 36.889 29.8631 36.3546 33.1078 33.1097C36.3525 29.8648 36.8869 29.3078 36.9381 29.1174C37.02 28.8128 37.0209 19.0312 36.9392 18.4311C36.8656 17.8909 36.5571 16.951 36.298 16.4771C35.8662 15.6875 35.1206 14.8606 34.4049 14.3779C33.9529 14.073 33.2691 13.7534 32.7309 13.5953L32.308 13.4712L32.2882 12.6601C32.2689 11.8704 32.264 11.8417 32.1018 11.5793C31.8904 11.2374 31.4721 11.0006 31.0794 11.0006C30.6868 11.0006 30.2685 11.2374 30.0569 11.5794C29.8959 11.8398 29.8895 11.8753 29.871 12.6142L29.8519 13.3793H27.5403H25.2286L25.2075 12.6128C25.1873 11.8751 25.1802 11.8363 25.0206 11.578C24.8101 11.2374 24.391 11.0006 23.9991 11.0006C23.6065 11.0006 23.1882 11.2374 22.9766 11.5794C22.8155 11.8398 22.8091 11.8753 22.7907 12.6142L22.7715 13.3793H20.4599H18.1482L18.1272 12.6128C18.1069 11.8751 18.0999 11.8363 17.9403 11.578C17.8198 11.3832 17.6934 11.2675 17.4785 11.1552C17.0825 10.9483 16.755 10.9483 16.359 11.1552ZM31.6449 20.6414C31.9401 20.8149 32.1802 21.17 32.2242 21.4983C32.287 21.9665 31.9953 22.478 31.5501 22.6803C31.3392 22.7761 30.9702 22.781 23.9991 22.781C17.0279 22.781 16.659 22.7761 16.4481 22.6803C16.0377 22.4939 15.7583 22.0532 15.7575 21.5911C15.7566 21.155 16.2 20.623 16.6552 20.5137C16.7545 20.4899 20.109 20.4743 24.1097 20.479L31.3837 20.4877L31.6449 20.6414Z" fill="white"/>
</g>
<defs>
<linearGradient id="paint0_linear_1125_218" x1="24" y1="0" x2="24" y2="48" gradientUnits="userSpaceOnUse">
<stop stop-color="#FFAA8F"/>
<stop offset="1" stop-color="#BE7F45"/>
</linearGradient>
<clipPath id="clip0_1125_218">
<rect width="48" height="48" rx="11" fill="white"/>
</clipPath>
</defs>
</svg>
