<svg width="48" height="48" viewBox="0 0 48 48" fill="none" xmlns="http://www.w3.org/2000/svg">
<g clip-path="url(#clip0_1320_4260)">
<rect width="48" height="48" rx="11" fill="url(#paint0_linear_1320_4260)"/>
<circle cx="42.5" cy="57.5" r="44.5" fill="black" fill-opacity="0.1"/>
<circle cx="54.5" cy="70.5" r="44.5" fill="black" fill-opacity="0.05"/>
<path fill-rule="evenodd" clip-rule="evenodd" d="M20.7502 14.0964C19.8162 14.3409 19.4176 14.7077 18.3694 16.2866L17.591 17.4592L16.1505 17.4612C14.4918 17.4636 14.2483 17.497 13.6157 17.8085C12.8924 18.1648 12.3431 18.8265 12.1136 19.618L12.0002 20.0095V25.7261C12.0002 32.0591 11.9819 31.6841 12.3246 32.3853C12.5456 32.8374 13.0604 33.3725 13.5188 33.6265C13.6961 33.7248 14.0127 33.849 14.2224 33.9026C14.5973 33.9984 14.7682 34 24.5001 34C34.232 34 34.4029 33.9984 34.7778 33.9026C35.8141 33.6378 36.6584 32.7851 36.926 31.7334C36.99 31.4818 37 30.6722 37 25.7261V20.0095L36.8865 19.618C36.6571 18.8265 36.1078 18.1648 35.3845 17.8085C34.7519 17.497 34.5084 17.4636 32.8496 17.4612L31.4092 17.4592L30.6308 16.2866C29.5756 14.6971 29.1815 14.3371 28.2307 14.0941C27.8725 14.0026 27.6847 13.9979 24.4801 14.0005C21.3201 14.003 21.084 14.0091 20.7502 14.0964ZM25.8673 18.266C28.2348 18.7888 30.1318 20.4934 30.8775 22.7679C31.4217 24.4279 31.286 26.2541 30.5026 27.8108C29.3493 30.1026 27.0654 31.5102 24.5001 31.5102C21.5812 31.5102 19.0323 29.663 18.1226 26.8886C17.4457 24.8237 17.8347 22.5035 19.1465 20.7819C20.1906 19.4115 21.6584 18.5309 23.4259 18.2143C23.9224 18.1254 25.3694 18.1561 25.8673 18.266ZM33.8896 20.0156C33.9764 20.0518 34.1175 20.1611 34.2029 20.2585C34.5645 20.6699 34.4373 21.3488 33.9558 21.5771C33.8212 21.641 33.6306 21.657 33.0132 21.6564C32.3011 21.6556 32.2238 21.6468 32.045 21.5456C31.6863 21.3426 31.5143 20.7983 31.6978 20.4473C31.7864 20.2779 32.0101 20.0663 32.166 20.0044C32.3577 19.9282 33.7012 19.937 33.8896 20.0156ZM23.9874 21.1033C22.1786 21.3944 20.8437 22.8524 20.7535 24.6354C20.6625 26.4352 21.8064 27.9909 23.5724 28.4691C23.9566 28.5732 24.9952 28.588 25.3302 28.4942C26.7119 28.1073 27.6773 27.2101 28.094 25.9259C28.341 25.1649 28.299 24.1609 27.9884 23.3972C27.5722 22.3737 26.614 21.5266 25.5247 21.2192C25.1638 21.1174 24.3032 21.0525 23.9874 21.1033Z" fill="white"/>
</g>
<defs>
<linearGradient id="paint0_linear_1320_4260" x1="24" y1="0" x2="24" y2="48" gradientUnits="userSpaceOnUse">
<stop stop-color="#FF8FD2"/>
<stop offset="1" stop-color="#BE4562"/>
</linearGradient>
<clipPath id="clip0_1320_4260">
<rect width="48" height="48" rx="11" fill="white"/>
</clipPath>
</defs>
</svg>
