<svg width="48" height="48" viewBox="0 0 48 48" fill="none" xmlns="http://www.w3.org/2000/svg">
<g clip-path="url(#clip0_1125_170)">
<rect width="48" height="48" rx="11" fill="url(#paint0_linear_1125_170)"/>
<circle cx="42.5" cy="57.5" r="44.5" fill="black" fill-opacity="0.1"/>
<circle cx="54.5" cy="70.5" r="44.5" fill="black" fill-opacity="0.05"/>
<path fill-rule="evenodd" clip-rule="evenodd" d="M24.012 13.121C23.8708 13.1964 21.3907 14.5307 18.5008 16.0862C14.4261 18.2792 13.221 18.9498 13.1333 19.0726L13.0203 19.231L13.007 27.3096C12.9922 36.262 12.968 35.6036 13.3219 35.8561C13.4797 35.9686 13.5141 35.9708 15.2931 35.9853L17.1037 36L17.1049 29.4383C17.1056 25.6933 17.1262 22.7904 17.1528 22.6757C17.2132 22.4152 17.4895 22.139 17.7501 22.0786C17.865 22.0519 20.7577 22.032 24.5 22.032C28.2423 22.032 31.135 22.0519 31.2499 22.0786C31.5105 22.139 31.7868 22.4152 31.8472 22.6757C31.8738 22.7904 31.8944 25.6933 31.8951 29.4383L31.8963 36L33.7069 35.9853C35.4859 35.9708 35.5203 35.9686 35.6781 35.8561C36.032 35.6036 36.0078 36.262 35.993 27.3096L35.9797 19.231L35.8667 19.0727C35.7791 18.9498 34.5266 18.2528 30.2938 15.9712C25.3043 13.2817 24.8095 13.0262 24.5514 13.006C24.3171 12.9877 24.2249 13.0073 24.012 13.121ZM18.7473 24.905V26.1374H24.5H30.2527V24.905V23.6726H24.5H18.7473V24.905ZM18.7473 29.0129V30.2452H24.5H30.2527V29.0129V27.7805H24.5H18.7473V29.0129ZM18.7473 33.1207V34.3531H24.5H30.2527V33.1207V31.8884H24.5H18.7473V33.1207Z" fill="white"/>
</g>
<defs>
<linearGradient id="paint0_linear_1125_170" x1="24" y1="0" x2="24" y2="48" gradientUnits="userSpaceOnUse">
<stop stop-color="#92FF8F"/>
<stop offset="1" stop-color="#45BE4A"/>
</linearGradient>
<clipPath id="clip0_1125_170">
<rect width="48" height="48" rx="11" fill="white"/>
</clipPath>
</defs>
</svg>
