<svg width="48" height="48" viewBox="0 0 48 48" fill="none" xmlns="http://www.w3.org/2000/svg">
<g clip-path="url(#clip0_1320_4246)">
<rect width="48" height="48" rx="11" fill="url(#paint0_linear_1320_4246)"/>
<circle cx="42.5" cy="57.5" r="44.5" fill="black" fill-opacity="0.1"/>
<circle cx="54.5" cy="70.5" r="44.5" fill="black" fill-opacity="0.05"/>
<path fill-rule="evenodd" clip-rule="evenodd" d="M17.554 13.0622C16.6816 13.2505 15.8455 13.9024 15.4503 14.7023C15.1447 15.321 15.1019 15.6039 15.1008 17.011L15.1 18.2195L14.3924 18.2354C13.6944 18.2511 13.6818 18.2533 13.4722 18.4003C13.0039 18.7288 12.8689 19.3468 13.1621 19.8201C13.2699 19.994 13.3815 20.0962 13.5727 20.1958C13.8205 20.325 13.8706 20.3327 14.4676 20.3327H15.1V21.8754V23.4181H14.5573C13.8255 23.4181 13.6126 23.4773 13.3294 23.76C12.8902 24.1983 12.8902 24.7927 13.3294 25.231C13.6126 25.5137 13.8255 25.5729 14.5573 25.5729H15.1V27.1156V28.6583H14.4676C13.8706 28.6583 13.8205 28.666 13.5727 28.7952C12.8642 29.1645 12.8103 30.1265 13.4722 30.5907C13.6818 30.7377 13.6944 30.7399 14.3924 30.7556L15.1 30.7715L15.1008 31.98C15.1019 33.3856 15.1448 33.6703 15.4485 34.2849C15.798 34.9924 16.5078 35.5978 17.3086 35.8711L17.6276 35.98L24.3759 35.9938C31.8165 36.0091 31.4933 36.021 32.1602 35.7066C33.0552 35.2848 33.752 34.3856 33.922 33.4333C34.0249 32.8572 34.0265 16.1431 33.9238 15.5681C33.7256 14.4584 32.9094 13.5253 31.7868 13.1248L31.4678 13.011L24.6704 13.0021C18.9886 12.9947 17.8206 13.0046 17.554 13.0622ZM25.1683 19.4015C25.5354 19.516 25.6898 19.612 26.008 19.9238C26.7889 20.6889 26.79 22.0169 26.0105 22.7985C25.5471 23.2631 25.0559 23.4467 24.3877 23.4051C22.6349 23.296 21.8314 21.1533 23.0765 19.9091C23.6298 19.3563 24.4135 19.1661 25.1683 19.4015ZM27.4788 25.7534C27.9374 25.9702 28.2639 26.29 28.4874 26.7414C28.6638 27.0974 28.6703 27.1291 28.6703 27.6299C28.6703 28.1306 28.6638 28.1624 28.4874 28.5184C28.2639 28.9698 27.9374 29.2896 27.4788 29.5063L27.1489 29.6623L24.6521 29.6763C21.9454 29.6914 21.8657 29.6851 21.4066 29.4179C21.1035 29.2415 20.7534 28.8611 20.5955 28.5364C20.043 27.4006 20.6188 26.0542 21.8238 25.6639C22.0705 25.584 22.3113 25.5774 24.6213 25.5869L27.1489 25.5974L27.4788 25.7534Z" fill="white"/>
</g>
<defs>
<linearGradient id="paint0_linear_1320_4246" x1="24" y1="0" x2="24" y2="48" gradientUnits="userSpaceOnUse">
<stop stop-color="#FFAA8F"/>
<stop offset="1" stop-color="#BE7145"/>
</linearGradient>
<clipPath id="clip0_1320_4246">
<rect width="48" height="48" rx="11" fill="white"/>
</clipPath>
</defs>
</svg>
