<svg width="48" height="48" viewBox="0 0 48 48" fill="none" xmlns="http://www.w3.org/2000/svg">
<g clip-path="url(#clip0_1125_200)">
<rect width="48" height="48" rx="11" fill="url(#paint0_linear_1125_200)"/>
<circle cx="42.5" cy="57.5" r="44.5" fill="black" fill-opacity="0.1"/>
<circle cx="54.5" cy="70.5" r="44.5" fill="black" fill-opacity="0.05"/>
<path fill-rule="evenodd" clip-rule="evenodd" d="M33.9852 10.0747C33.1248 10.3467 32.4891 10.9904 32.2267 11.8553C32.136 12.1544 32.1214 12.8225 32.1996 13.0954L32.2528 13.2809L30.7867 14.3825L29.3206 15.4841L28.9361 15.3041C28.6196 15.1559 28.4638 15.1199 28.0538 15.1003C27.7499 15.0858 27.4516 15.1048 27.2882 15.1492C26.3836 15.3947 25.7024 16.0566 25.4299 16.9546C25.3147 17.3342 25.3305 18.0564 25.4622 18.4333L25.5711 18.745L23.8886 20.428L22.2061 22.111L21.8946 22.0021C21.5174 21.8702 20.7956 21.8547 20.4152 21.9701C20.0711 22.0746 19.7441 22.2442 19.5153 22.4368L19.3299 22.5928L18.1059 21.9611L16.8819 21.3293L16.8462 20.887C16.7882 20.1687 16.5828 19.7082 16.1093 19.2345C15.6101 18.7352 15.0179 18.4912 14.3048 18.4912C13.5918 18.4912 12.9996 18.7352 12.5003 19.2345C12.0012 19.7339 11.7573 20.3264 11.7573 21.0396C11.7573 21.7529 12.0012 22.3453 12.5003 22.8447C12.9996 23.344 13.5918 23.588 14.3048 23.588C14.9159 23.588 15.4683 23.3979 15.8911 23.042L16.0765 22.886L17.3005 23.5177L18.5245 24.1494L18.5602 24.5917C18.6182 25.31 18.8236 25.7706 19.2971 26.2442C19.7963 26.7436 20.3886 26.9875 21.1016 26.9875C22.2624 26.9875 23.2254 26.2608 23.5701 25.1247C23.6853 24.7451 23.6695 24.0228 23.5378 23.6459L23.4289 23.3343L25.1114 21.6513L26.7939 19.9682L27.1054 20.0771C27.4822 20.2088 28.2042 20.2246 28.5837 20.1094C29.4614 19.8429 30.1005 19.2037 30.3669 18.3256C30.4576 18.0266 30.4722 17.3585 30.394 17.0855L30.3408 16.9L31.8069 15.7985L33.273 14.6969L33.6574 14.8769C33.974 15.025 34.1298 15.0611 34.5398 15.0807C35.3357 15.1187 35.962 14.884 36.4997 14.346C36.9989 13.8465 37.2427 13.2541 37.2427 12.5408C37.2427 11.3797 36.5163 10.4164 35.3805 10.0715C35.0619 9.97477 34.2956 9.97653 33.9852 10.0747ZM32.5565 18.603C32.455 18.6649 32.3213 18.7987 32.2594 18.9003C32.1483 19.0825 32.1468 19.2045 32.1466 28.1928L32.1464 37.3006H31.2968H30.4472L30.447 30.7424C30.4468 24.2983 30.4448 24.1809 30.3342 23.9995C30.2723 23.8979 30.1386 23.7642 30.0371 23.7023C29.8623 23.5957 29.7485 23.5897 27.8984 23.5897C26.0483 23.5897 25.9345 23.5957 25.7597 23.7023C25.6582 23.7642 25.5245 23.8979 25.4626 23.9995C25.352 24.1809 25.35 24.2983 25.3498 30.7424L25.3496 37.3006H24.5H23.6504L23.6502 34.1419C23.65 31.09 23.6462 30.977 23.5374 30.7986C23.4755 30.697 23.3418 30.5633 23.2403 30.5013C23.0655 30.3947 22.9517 30.3887 21.1016 30.3887C19.2515 30.3887 19.1377 30.3947 18.9629 30.5013C18.8614 30.5633 18.7277 30.697 18.6658 30.7986C18.5571 30.977 18.5532 31.09 18.553 34.1419L18.5528 37.3006H17.7032H16.8536L16.8534 32.4422C16.8532 27.6941 16.8506 27.5795 16.7406 27.399C16.6787 27.2975 16.545 27.1637 16.4435 27.1018C16.2687 26.9952 16.155 26.9892 14.3048 26.9892C12.4547 26.9892 12.3409 26.9952 12.1662 27.1018C12.0646 27.1637 11.9309 27.2975 11.869 27.399C11.759 27.5795 11.7564 27.6941 11.7562 32.4422L11.756 37.3006L11.1755 37.3009C10.6961 37.301 10.5627 37.3207 10.4103 37.4137C9.86323 37.7473 9.86323 38.5537 10.4103 38.8874C10.5932 38.9989 10.7246 39 24.5 39C38.2754 39 38.4068 38.9989 38.5897 38.8874C39.1368 38.5537 39.1368 37.7473 38.5897 37.4137C38.4373 37.3207 38.3039 37.301 37.8245 37.3009L37.244 37.3006L37.2438 28.1928C37.2436 19.2045 37.2421 19.0825 37.131 18.9003C37.0691 18.7987 36.9354 18.6649 36.8338 18.603C36.6591 18.4964 36.5453 18.4904 34.6952 18.4904C32.845 18.4904 32.7313 18.4964 32.5565 18.603Z" fill="white"/>
</g>
<defs>
<linearGradient id="paint0_linear_1125_200" x1="24" y1="0" x2="24" y2="48" gradientUnits="userSpaceOnUse">
<stop stop-color="#8FFFE4"/>
<stop offset="1" stop-color="#45BE67"/>
</linearGradient>
<clipPath id="clip0_1125_200">
<rect width="48" height="48" rx="11" fill="white"/>
</clipPath>
</defs>
</svg>
