<svg width="48" height="48" viewBox="0 0 48 48" fill="none" xmlns="http://www.w3.org/2000/svg">
  <g clip-path="url(#clip0_1125_188)">
    <rect width="48" height="48" rx="11" fill="url(#paint0_linear_1125_188)"/>
    <circle cx="42.5" cy="57.5" r="44.5" fill="black" fill-opacity="0.1"/>
    <circle cx="54.5" cy="70.5" r="44.5" fill="black" fill-opacity="0.05"/>
    <path fill-rule="evenodd" clip-rule="evenodd" d="M2 12C0 7.6 5.4 3 10 3h12c24.6 0 44 20.4 44 44s-20.4 44-44 44H10C5.4 91 0 86.6 0 82V12zm20 0H10v70h12c17.6 0 32-14.4 32-32s-14.4-32-32-32z" fill="white"/>
  </g>
  <defs>
    <linearGradient id="paint0_linear_1125_188" x1="24" y1="0" x2="24" y2="48" gradientUnits="userSpaceOnUse">
      <stop stop-color="#FFE68F"/>
      <stop offset="1" stop-color="#BE8E45"/>
    </linearGradient>
    <clipPath id="clip0_1125_188">
      <rect width="48" height="48" rx="11" fill="white"/>
    </clipPath>
  </defs>
</svg>

