<?xml version="1.0" encoding="utf-8"?>
<svg id="master-artboard" xmlns="http://www.w3.org/2000/svg" viewBox="0 0 500 500" width="500px" height="500px" xmlns:xlink="http://www.w3.org/1999/xlink"><g transform="matrix(10.416666030883789, 0, 0, 10.416666030883789, 0.000003850348548439797, 7.105427357601002e-15)"><g>
	<defs>
		<path id="SVGID_1_" d="M11,0h26c6.1,0,11,4.9,11,11v26c0,6.1-4.9,11-11,11H11C4.9,48,0,43.1,0,37V11C0,4.9,4.9,0,11,0z"/>
	</defs>
	<clipPath id="SVGID_00000120526813260926887420000004996460608507153555_">
		<use style="overflow:visible;" xlink:href="#SVGID_1_"/>
	</clipPath>
	<g style="clip-path:url(#SVGID_00000120526813260926887420000004996460608507153555_);">
		
			<linearGradient id="SVGID_00000064328784285553919870000015753069606208762299_" gradientUnits="userSpaceOnUse" x1="24" y1="50" x2="24" y2="2" gradientTransform="matrix(1 0 0 -1 0 50)">
			<stop offset="0" style="stop-color:#F89938"/>
			<stop offset="1" style="stop-color:#CC3333"/>
		</linearGradient>
		<path style="fill:url(#SVGID_00000064328784285553919870000015753069606208762299_);" d="M 11 0 L 37 0 C 43.1 0 48 4.9 48 11 L 48 37 C 48 43.1 43.1 48 37 48 L 11 48 C 4.9 48 0 43.1 0 37 L 0 11 C 0 4.9 4.9 0 11 0 Z"/>
		<path d="M 87 57.5 C 87 82.07667136747031 67.07667136747031 102 42.5 102 C 17.92332863252969 102 -1.999999999999997 82.07667136747031 -2 57.5 C -2.000000000000003 32.92332863252969 17.923328632529696 13.000000000000005 42.5 13 C 67.07667136747031 13.000000000000002 87 32.923328632529696 87 57.5 Z" class="st2" style="fill-opacity: 0.1;"/>
		<path d="M 99 70.5 C 99 95.07667136747031 79.07667136747031 115 54.5 115 C 29.92332863252969 115 10.000000000000004 95.07667136747031 10 70.5 C 9.999999999999996 45.92332863252969 29.923328632529696 26.000000000000004 54.5 26 C 79.07667136747031 26 99 45.923328632529696 99 70.5 Z" class="st3" style="fill-opacity: 0.05;"/>
		<path class="st4" d="M 27.3 15.1 C 25.900000000000002 15.4 24.8 16.3 24.2 17.6 C 23.8 18.400000000000002 23.7 19.3 23.8 20.400000000000002 L 23.8 20.6 L 23.6 20.6 C 23.400000000000002 20.6 22.5 20.5 22 20.400000000000002 C 19.7 20.000000000000004 17.5 18.8 15.8 17.3 C 15.4 17 15 16.5 14.600000000000001 16.1 C 14.500000000000002 16 14.500000000000002 15.900000000000002 14.400000000000002 15.900000000000002 C 14.400000000000002 15.900000000000002 14.100000000000001 16.500000000000004 14.000000000000002 16.8 C 13.800000000000002 17.3 13.800000000000002 17.6 13.800000000000002 18.3 C 13.800000000000002 18.8 13.800000000000002 19 13.900000000000002 19.400000000000002 C 14.100000000000001 20.200000000000003 14.500000000000002 20.900000000000002 15.100000000000001 21.500000000000004 C 15.3 21.700000000000003 15.500000000000002 21.900000000000002 15.600000000000001 22.000000000000004 L 15.700000000000001 22.100000000000005 L 15.4 22.100000000000005 C 14.9 22.100000000000005 14.5 21.900000000000006 13.8 21.600000000000005 L 13.600000000000001 21.500000000000004 L 13.600000000000001 21.900000000000002 C 13.700000000000001 23.8 15.000000000000002 25.400000000000002 16.8 26 L 17.1 26.1 L 16.900000000000002 26.1 C 16.8 26 16.1 26 15.8 26 C 15.600000000000001 26 15.5 26 15.5 26 C 15.5 26 15.5 26.2 15.6 26.3 C 16 27.3 16.9 28.2 17.9 28.7 C 18.299999999999997 28.9 18.599999999999998 29 19.2 29.099999999999998 L 19.599999999999998 29.2 L 19.299999999999997 29.4 C 18.299999999999997 30.099999999999998 18.01601753234863 34.41673431396484 16.91601753234863 34.71673431396484 C 16.21601753234863 34.91673431396484 14.899999999999997 31.099999999999998 13.999999999999996 31.099999999999998 L 13 31 L 13.4 31.2 C 15 32.2 10.065645027160645 35.22242813110351 12.065645027160645 35.422428131103516 C 12.765645027160645 35.52242813110352 18.624085431597692 38.6793056523137 15.253530502319336 33.2966064453125 C 14.180216722662601 31.582551237466106 25.6 32 27.2 30.9 C 27.9 30.4 28.3 30.099999999999998 28.9 29.5 C 31.4 27.1 32.9 23.6 32.9 20.1 L 32.9 19.5 L 33.3 19.2 C 33.8 18.9 34.5 18.099999999999998 34.9 17.599999999999998 C 35.1 17.4 35.199999999999996 17.2 35.199999999999996 17.2 C 35.199999999999996 17.2 35.099999999999994 17.2 34.9 17.3 C 34.4 17.5 33.6 17.7 33.1 17.8 C 33 17.8 32.9 17.8 32.800000000000004 17.900000000000002 C 32.7 17.900000000000002 32.7 17.900000000000002 32.900000000000006 17.8 C 33.60000000000001 17.3 34.2 16.6 34.50000000000001 15.8 C 34.60000000000001 15.700000000000001 34.60000000000001 15.5 34.60000000000001 15.5 C 34.60000000000001 15.5 34.400000000000006 15.6 34.20000000000001 15.7 C 33.40000000000001 16.099999999999998 32.90000000000001 16.3 32.20000000000001 16.5 L 31.80000000000001 16.6 L 31.70000000000001 16.5 C 31.50000000000001 16.3 31.00000000000001 15.9 30.70000000000001 15.7 C 30.30000000000001 15.5 29.80000000000001 15.299999999999999 29.40000000000001 15.2 C 28.6 15 27.8 15 27.3 15.1 Z" style="display: none; fill-rule: evenodd; clip-rule: evenodd; fill: rgb(255, 255, 255);"/>
	</g>
	
		<path style="clip-path:url(#SVGID_00000120526813260926887420000004996460608507153555_);fill-rule:evenodd;clip-rule:evenodd;fill:#FFFFFF;" d="M 18.178644561767577 11.5 C 17.478644561767577 11.6 16.067967796325682 11.494661140441895 15.367967796325683 11.794661140441894 C 13.367967796325683 12.694661140441895 13.799999999999999 14.899999999999999 13.5 17 C 13.5 17.3 13.4 19.9 13.4 24 C 13.4 31.3 11.365158462524414 33.47398147583008 11.765158462524415 34.27398147583008 C 11.965158462524414 34.673981475830075 11.050840568542482 35.06777572631836 11.450840568542482 35.46777572631836 C 11.750840568542483 35.767775726318355 11.421009254455567 35.33794631958008 11.721009254455568 35.43794631958008 L 29.866143608093264 33.98026962280274 C 20.822369886907957 37.748512134794986 11.817906379699709 35.35966262817383 11.817906379699709 35.35966262817383 C 11.317906379699709 35.85966262817383 11.79929008483887 33.346543121337895 11.79929008483887 33.74654312133789 C 11.79929008483887 34.64654312133789 11.472590827941897 33.62436218261719 12.272590827941897 33.22436218261719 C 13.831717109765762 28.455162822785102 10.7140926361084 35.557759094238286 11.4140926361084 34.85775909423828 L 11.83891658782959 35.21121597290039 L 11.984746932983398 35.59880447387695 L 11.64609260559082 35.25966262817383 L 11.828672790527342 35.39069137573242 C 13.128672790527343 36.590691375732426 12.654434799432716 35.29176623238976 12.132972145080565 34.99498977661133 C 12.054843629134027 34.95052531709234 -3.59260842718486 35.362810995346514 11.688822937011714 35.53603515625 C 12.088798155423511 35.54056751266864 29.741275405883783 34.5 29.241275405883783 34 L 31.283982467651363 33.21832427978516 L 32.52366409301757 32.10231056213379 C 32.723664093017575 32.002310562133786 33.199999999999996 31.244300842285156 33.49999999999999 31.044300842285153 C 33.89999999999999 30.644300842285155 34.25266799926757 29.604621124267574 34.45266799926757 29.204621124267575 C 34.95266799926757 28.304621124267577 34.69999999999999 31.199999999999996 34.69999999999999 23.9 C 34.69999999999999 19.799999999999997 34.69999999999999 17.2 34.59999999999999 16.9 C 34.399999999999984 15.599999999999998 33.79999999999999 14.399999999999999 32.79999999999999 13.399999999999999 C 32.29999999999999 12.799999999999999 31.69999999999999 12.499999999999998 30.99999999999999 12.099999999999998 C 30.19999999999999 11.699999999999998 29.49999999999999 11.499999999999998 28.59999999999999 11.499999999999998 C 27.6 11.5 19.07864456176758 11.5 18.178644561767577 11.5 Z M 29 15.5 C 29.7 15.8 30.1 16.3 30.4 16.9 C 30.5 17.2 30.5 17.299999999999997 30.5 20.2 C 30.5 23.1 30.5 23.2 30.4 23.5 C 30.099999999999998 24.3 30.759662628173828 26.40190544128418 29.859662628173826 26.60190544128418 C 29.659662628173827 26.701905441284183 29.628635787963866 30.868485641479495 26.228635787963867 30.868485641479495 C 22.428635787963866 30.868485641479495 18.34344024658203 31.49831695556641 18.04344024658203 31.398316955566408 C 17.14344024658203 31.19831695556641 17.9 24.3 17.599999999999998 23.5 C 17.499999999999996 23.2 17.499999999999996 23.1 17.499999999999996 20.2 C 17.499999999999996 17.299999999999997 17.499999999999996 17.2 17.599999999999998 16.9 C 17.9 16.099999999999998 17.073306655883787 15.423666000366211 17.873306655883788 15.22366600036621 C 17.97330665588379 15.22366600036621 21.599999999999998 15.009308624267575 24.099999999999998 15.009308624267575 L 28.599999999999998 15.299999999999999 L 29 15.5 Z M 19.4 28 C 20.099999999999998 28.4 20.2 29.3 19.7 29.8 C 19.4 30.1 19.099999999999998 30.2 18.7 30.2 C 18 30.2 17.4 29.7 17.4 29 C 17.4 28.6 17.5 28.4 17.799999999999997 28.1 C 18.3 27.7 18.9 27.7 19.4 28 Z M 30.80698928833008 30.677056121826173 C 26.374238967895508 31.540401458740234 24.193226623535157 32.398406219482425 24.29322662353516 32.69840621948242 C 24.39322662353516 32.99840621948242 31.72135353088379 31.132030487060547 29.78932228088379 30.74501953125 C 29.589322280883792 31.14501953125 32.61424255371094 20.253114700317383 33.03025894165039 21.092797088623048 C 33.207836825061065 21.45121922481774 31.357347106933595 27.100697708129882 31.05734710693359 26.800697708129885 C 30.386350631713867 28.243408203125 29.606989288330077 30.377056121826172 30.80698928833008 30.677056121826173 Z"/>
</g></g></svg>