<svg width="48" height="48" viewBox="0 0 48 48" fill="none" xmlns="http://www.w3.org/2000/svg">
<g clip-path="url(#clip0_1125_188)">
<rect width="48" height="48" rx="11" fill="url(#paint0_linear_1125_188)"/>
<circle cx="42.5" cy="57.5" r="44.5" fill="black" fill-opacity="0.1"/>
<circle cx="54.5" cy="70.5" r="44.5" fill="black" fill-opacity="0.05"/>
<path fill-rule="evenodd" clip-rule="evenodd" d="M11.7306 13.0758C11.072 13.2547 10.5128 13.7277 10.1939 14.3755L10 14.7693V24.3897V34.01L10.1726 34.2558C10.5387 34.7772 11.2251 34.9341 11.8831 34.6468C12.2041 34.5067 12.6373 34.088 12.7782 33.7817C12.8256 33.6788 13.6558 30.8796 14.6231 27.5615C15.969 22.9446 16.431 21.4341 16.5916 21.1266C16.9118 20.5133 17.6291 19.8156 18.2493 19.5143C19.2103 19.0473 18.4393 19.0851 27.3915 19.0658L35.3715 19.0485V18.5504C35.3715 17.7246 35.1582 17.1982 34.6157 16.6851C34.3121 16.398 34.1303 16.2838 33.7066 16.1138C33.4962 16.0293 32.95 16.0167 28.3892 15.991L23.3063 15.9623L23.0789 15.7922C22.9538 15.6987 22.5078 15.2012 22.0878 14.6867C21.2635 13.6769 20.9307 13.3955 20.262 13.1432L19.9218 13.0149L15.9814 13.0031C12.6437 12.9932 11.9936 13.0043 11.7306 13.0758ZM19.3265 20.3257C18.5205 20.5579 17.9406 21.0323 17.575 21.7584C17.5086 21.8904 16.6778 24.6586 15.7288 27.9099C14.7799 31.1612 13.963 33.935 13.9136 34.074C13.595 34.9698 12.6581 35.7384 11.6657 35.918C11.3097 35.9825 12.879 35.9945 22.1896 35.9981C34.2511 36.0028 33.4898 36.0249 34.2039 35.6495C34.7038 35.3868 35.1946 34.8764 35.4442 34.3599C35.585 34.0685 36.1767 32.1234 37.3248 28.178C38.7181 23.39 39 22.3623 39 22.0712C39 21.3696 38.609 20.7334 37.9916 20.4302L37.6676 20.2711L28.6246 20.2617C21.3652 20.2541 19.5313 20.2667 19.3265 20.3257Z" fill="white"/>
</g>
<defs>
<linearGradient id="paint0_linear_1125_188" x1="24" y1="0" x2="24" y2="48" gradientUnits="userSpaceOnUse">
<stop stop-color="#FFE68F"/>
<stop offset="1" stop-color="#BE8E45"/>
</linearGradient>
<clipPath id="clip0_1125_188">
<rect width="48" height="48" rx="11" fill="white"/>
</clipPath>
</defs>
</svg>
