<svg width="48" height="48" viewBox="0 0 48 48" fill="none" xmlns="http://www.w3.org/2000/svg">
<g clip-path="url(#clip0_1125_152)">
<rect width="48" height="48" rx="11" fill="url(#paint0_linear_1125_152)"/>
<circle cx="42.5" cy="57.5" r="44.5" fill="black" fill-opacity="0.1"/>
<circle cx="54.5" cy="70.5" r="44.5" fill="black" fill-opacity="0.05"/>
<path fill-rule="evenodd" clip-rule="evenodd" d="M12.7908 14.0866C11.7186 14.3825 11 15.3272 11 16.4411C11 16.8565 11.0906 17.2686 11.2543 17.5971C11.4977 18.0854 11.6436 18.1931 17.3216 22.0718C20.7562 24.418 22.9754 25.9017 23.1635 25.9776C23.5997 26.1537 24.4002 26.1537 24.8365 25.9776C25.0245 25.9017 27.2438 24.418 30.6783 22.0718C36.3564 18.1931 36.5023 18.0854 36.7457 17.5971C37.0121 17.0623 37.0767 16.298 36.9037 15.7284C36.6586 14.9213 36.0154 14.3049 35.1874 14.084C34.7618 13.9703 13.2027 13.9728 12.7908 14.0866ZM11 25.7626C11 31.6898 11.0041 31.9642 11.0962 32.2675C11.3414 33.0746 11.9846 33.691 12.8125 33.9119C13.2523 34.0294 34.7477 34.0294 35.1874 33.9119C36.0126 33.6917 36.6272 33.1066 36.8944 32.287C36.9989 31.9665 37 31.9021 37 25.7688V19.5743L31.5029 23.3305C28.1993 25.5878 25.8437 27.1638 25.5996 27.2802C24.5666 27.7721 23.3916 27.7642 22.3493 27.2582C22.1537 27.1632 19.52 25.3955 16.4968 23.3299L11 19.5743V25.7626Z" fill="white"/>
</g>
<defs>
<linearGradient id="paint0_linear_1125_152" x1="24" y1="0" x2="24" y2="48" gradientUnits="userSpaceOnUse">
<stop stop-color="#8FFFFF"/>
<stop offset="1" stop-color="#45A8BE"/>
</linearGradient>
<clipPath id="clip0_1125_152">
<rect width="48" height="48" rx="11" fill="white"/>
</clipPath>
</defs>
</svg>
