<svg width="48" height="48" viewBox="0 0 48 48" fill="none" xmlns="http://www.w3.org/2000/svg">
<g clip-path="url(#clip0_1125_230)">
<rect width="48" height="48" rx="11" fill="url(#paint0_linear_1125_230)"/>
<circle cx="42.5" cy="57.5" r="44.5" fill="black" fill-opacity="0.1"/>
<circle cx="54.5" cy="70.5" r="44.5" fill="black" fill-opacity="0.05"/>
<path fill-rule="evenodd" clip-rule="evenodd" d="M22.1583 14.0644C20.9916 14.2444 19.9612 14.6104 19.0231 15.1779C17.3958 16.1622 16.154 17.6596 15.4901 19.4379C15.1373 20.3828 15 21.2675 15 22.5948V23.5059H17.5326H20.0652V22.6735C20.0652 21.6939 20.1118 21.4255 20.3783 20.87C20.5859 20.4373 20.6817 20.3029 21.0392 19.9432C21.535 19.4442 22.2216 19.1147 22.9526 19.0248C23.1476 19.0009 23.7269 18.9812 24.2398 18.9812H25.1723V16.4906V14L23.8432 14.0048C22.9716 14.0079 22.3916 14.0284 22.1583 14.0644ZM27.1816 16.4922V18.9844L29.6201 18.9717L32.0585 18.9589L32.3246 18.861C33.1329 18.5636 33.7492 17.8739 33.9458 17.0469C34.0367 16.6646 34.0053 16.0335 33.8771 15.6663C33.6741 15.0848 33.1715 14.522 32.6155 14.2537C32.0919 14.001 32.0792 14 29.5171 14H27.1816V16.4922ZM24.8848 21.9924C23.8908 22.2063 23.1236 22.9872 22.932 23.98C22.8536 24.3866 22.8542 24.5131 22.9364 24.908C23.1239 25.8076 23.7452 26.4825 24.6909 26.8133L25.0258 26.9304L26.9723 26.9512L28.9189 26.972L28.9299 28.4975L28.9409 30.023H26.1241C24.409 30.023 23.1685 30.0059 22.9526 29.9794C22.2109 29.8882 21.5363 29.5608 21.0177 29.0403C20.6927 28.7142 20.5824 28.5622 20.3793 28.1611C20.128 27.6643 20.0658 27.3037 20.0655 26.339L20.0652 25.4984H17.5326H15V26.4095C15 27.8496 15.1597 28.759 15.6041 29.8489C16.2387 31.4051 17.3635 32.7606 18.7884 33.6863C19.6005 34.2139 20.6356 34.6334 21.6978 34.8656L22.2211 34.9799L27.0282 34.9936C32.3127 35.0086 32.0605 35.0193 32.6027 34.7566C33.1731 34.4803 33.6858 33.9048 33.8878 33.314L33.9841 33.0325L33.9958 29.8202C34.0087 26.2934 34.0073 26.2686 33.7554 25.4891C33.1475 23.6074 31.4397 22.2144 29.4432 21.9716C28.8888 21.9042 25.2169 21.921 24.8848 21.9924Z" fill="white"/>
</g>
<defs>
<linearGradient id="paint0_linear_1125_230" x1="24" y1="0" x2="24" y2="48" gradientUnits="userSpaceOnUse">
<stop stop-color="#C1FF8F"/>
<stop offset="1" stop-color="#45BE58"/>
</linearGradient>
<clipPath id="clip0_1125_230">
<rect width="48" height="48" rx="11" fill="white"/>
</clipPath>
</defs>
</svg>
