<svg width="48" height="48" viewBox="0 0 48 48" fill="none" xmlns="http://www.w3.org/2000/svg">
<g clip-path="url(#clip0_1125_145)">
<rect width="48" height="48" rx="11" fill="url(#paint0_linear_1125_145)"/>
<circle cx="42.5" cy="57.5" r="44.5" fill="black" fill-opacity="0.1"/>
<circle cx="54.5" cy="70.5" r="44.5" fill="black" fill-opacity="0.05"/>
</g>
<path fill-rule="evenodd" clip-rule="evenodd" d="M26.0744 12.0719C25.3875 12.2388 24.5816 12.8155 24.1998 13.4135C23.8182 14.0109 23.6732 14.8478 23.8331 15.5293C24.075 16.5602 24.9569 17.4389 26.0496 17.7379C26.478 17.8551 27.3226 17.8551 27.7512 17.7379C28.4693 17.5416 29.2683 16.9422 29.6234 16.3334C29.9809 15.7206 30.0969 14.86 29.915 14.1709C29.6554 13.1875 28.7323 12.3133 27.6934 12.0673C27.3066 11.9756 26.461 11.9781 26.0744 12.0719ZM23.0172 20.5212C22.7799 20.5583 22.3861 20.6435 22.1421 20.7107C21.3975 20.9154 19.4568 21.6264 19.359 21.7302C19.3065 21.7859 19 22.9576 19 23.1026C19 23.1609 19.0653 23.1517 19.3525 23.0525C20.0098 22.8255 20.4549 22.7411 20.9953 22.7407C22.1275 22.74 22.5289 23.0181 22.6491 23.8864C22.7589 24.6796 22.6135 25.3948 21.6254 28.9201C20.7661 31.9855 20.653 32.5349 20.653 33.6428C20.653 34.2925 20.7105 34.577 20.9423 35.0753C21.2529 35.7429 21.7344 36.2262 22.4275 36.566C23.0134 36.8533 23.5085 36.9597 24.4061 36.991C25.8205 37.0405 26.3838 36.9095 28.7218 35.9876L29.3278 35.7487L29.5061 35.0334C29.6041 34.64 29.6657 34.3181 29.643 34.3181C29.6203 34.3181 29.4314 34.3741 29.2234 34.4425C28.4315 34.7029 27.8312 34.7827 27.2298 34.7076C26.3546 34.5983 26.0664 34.3453 25.9487 33.5833C25.8345 32.844 26.0207 31.9039 26.9005 28.7773C27.8891 25.2639 27.9134 25.1459 27.9165 23.8395C27.9181 23.1169 27.9083 23.0281 27.7866 22.6633C27.4907 21.776 26.793 21.0785 25.8588 20.736C25.1002 20.4578 23.97 20.3724 23.0172 20.5212Z" fill="white"/>
<defs>
<linearGradient id="paint0_linear_1125_145" x1="24" y1="0" x2="24" y2="48" gradientUnits="userSpaceOnUse">
<stop stop-color="#8FAFFF"/>
<stop offset="1" stop-color="#458BBE"/>
</linearGradient>
<clipPath id="clip0_1125_145">
<rect width="48" height="48" rx="11" fill="white"/>
</clipPath>
</defs>
</svg>
