<svg width="48" height="48" viewBox="0 0 48 48" fill="none" xmlns="http://www.w3.org/2000/svg">
<g clip-path="url(#clip0_1125_206)">
<rect width="48" height="48" rx="11" fill="url(#paint0_linear_1125_206)"/>
<circle cx="42.5" cy="57.5" r="44.5" fill="black" fill-opacity="0.1"/>
<circle cx="54.5" cy="70.5" r="44.5" fill="black" fill-opacity="0.05"/>
<path fill-rule="evenodd" clip-rule="evenodd" d="M23.4375 14.027C21.8095 14.2221 20.3898 15.1839 19.6569 16.588C19.2592 17.35 19.1562 17.7941 19.1562 18.7472C19.1562 19.7231 19.2624 20.1628 19.6926 20.97C20.6189 22.708 22.6681 23.7493 24.616 23.4717C26.5975 23.1894 28.0944 21.9368 28.6973 20.0565C28.8894 19.4574 28.9071 18.1796 28.7319 17.5598C28.2436 15.8323 26.8364 14.5006 25.0982 14.1207C24.5736 14.006 23.9199 13.9691 23.4375 14.027ZM13.1875 17.4999C11.4757 17.7898 10.274 19.4254 10.5598 21.0763C10.8177 22.5661 12.1927 23.7131 13.7162 23.7094C15.7927 23.7045 17.3518 21.7747 16.8418 19.841C16.6903 19.2666 16.44 18.8396 16.0002 18.4053C15.2351 17.6498 14.2241 17.3243 13.1875 17.4999ZM33.5882 17.5283C33.002 17.6526 32.4603 17.951 31.9962 18.4053C31.3306 19.0568 31.0198 19.8537 31.079 20.7568C31.2281 23.0293 33.6197 24.3637 35.75 23.3631C35.9481 23.2701 36.272 23.0287 36.5144 22.7937C38.3895 20.9749 37.3709 17.9153 34.75 17.4939C34.3039 17.4222 34.0538 17.4296 33.5882 17.5283ZM22.7826 24.7486C20.9649 25.0258 19.3239 25.8117 18.0011 27.0381C17.0514 27.9187 16.3302 28.9516 15.8748 30.0836C15.6589 30.6201 15.3768 31.5818 15.3754 31.7858C15.3748 31.8786 16.1587 32.4819 16.875 32.9397C20.5022 35.2581 25.1389 35.6468 29.1562 33.9691C30.2377 33.5175 31.2273 32.9386 32.1719 32.2051C32.4211 32.0116 32.6248 31.8229 32.6246 31.7858C32.6233 31.5818 32.3411 30.6201 32.1252 30.0836C31.0751 27.4738 28.7007 25.5082 25.8125 24.8578C25.1984 24.7195 23.3987 24.6546 22.7826 24.7486ZM12.9062 24.7809C12.8375 24.7966 12.5898 24.8521 12.3559 24.9042C11.0924 25.1855 9.77306 26.0587 8.96087 27.151C8.53656 27.7218 8 28.9767 8 29.3984C8 29.6762 9.88312 30.7648 10.9663 31.1132C11.9611 31.4331 13.3997 31.6188 14.2436 31.5362L14.6778 31.4938L14.7532 31.1797C15.151 29.5218 16.0573 27.911 17.2704 26.7056L17.7188 26.2603L17.5312 26.108C16.8794 25.5787 16.1291 25.1845 15.3311 24.9519C14.8756 24.8192 14.6311 24.7883 13.9062 24.772C13.425 24.7612 12.975 24.7653 12.9062 24.7809ZM33.1321 24.836C32.4943 24.9767 32.1289 25.1065 31.5766 25.389C31.1176 25.6236 30.3125 26.1752 30.3125 26.255C30.3125 26.2715 30.5236 26.5002 30.7816 26.7633C31.9847 27.9903 32.8203 29.4649 33.2151 31.058L33.3231 31.4938L33.7569 31.5363C34.6003 31.6188 36.0392 31.433 37.0337 31.1132C38.1169 30.7648 40 29.6762 40 29.3984C40 29.174 39.7866 28.5188 39.5588 28.0435C38.8229 26.5087 37.4437 25.3842 35.7188 24.9126C35.1339 24.7528 33.7017 24.7103 33.1321 24.836Z" fill="white"/>
</g>
<defs>
<linearGradient id="paint0_linear_1125_206" x1="24" y1="0" x2="24" y2="48" gradientUnits="userSpaceOnUse">
<stop stop-color="#FF8FC5"/>
<stop offset="1" stop-color="#7A45BE"/>
</linearGradient>
<clipPath id="clip0_1125_206">
<rect width="48" height="48" rx="11" fill="white"/>
</clipPath>
</defs>
</svg>
