<svg width="48" height="48" viewBox="0 0 48 48" fill="none" xmlns="http://www.w3.org/2000/svg">
<g clip-path="url(#clip0_1320_4230)">
<rect width="48" height="48" rx="11" fill="url(#paint0_linear_1320_4230)"/>
<circle cx="42.5" cy="57.5" r="44.5" fill="black" fill-opacity="0.1"/>
<circle cx="54.5" cy="70.5" r="44.5" fill="black" fill-opacity="0.05"/>
<path fill-rule="evenodd" clip-rule="evenodd" d="M15.5556 13.0428C13.9289 13.3757 12.6395 14.5915 12.131 16.2717L12 16.7047V22.2188V27.7329L12.131 28.1659C12.5047 29.4007 13.2745 30.3732 14.321 30.9326C14.9086 31.2466 15.4213 31.3949 16.1213 31.4529C16.8035 31.5095 17.0183 31.6028 17.1994 31.921C17.3069 32.1101 17.3147 32.2409 17.3412 34.3073L17.3691 36.4935L17.6402 36.7468C17.8836 36.9742 17.9395 37 18.1883 37C18.3407 37 18.5436 36.9582 18.6394 36.907C18.7351 36.8559 20.2777 35.676 22.0674 34.285C24.9796 32.0216 25.3619 31.7421 25.7077 31.6236C26.0903 31.4923 26.129 31.4908 29.7852 31.4575C33.4498 31.4241 33.4794 31.4229 33.868 31.2904C35.365 30.7798 36.4059 29.696 36.869 28.1659L37 27.7329V22.2188V16.7047L36.869 16.2717C36.404 14.735 35.3872 13.676 33.868 13.1459L33.4765 13.0094L24.6398 13.0007C19.7592 12.996 15.6923 13.0148 15.5556 13.0428ZM31.2095 18.6698C31.7647 19.0066 31.7647 19.888 31.2095 20.2248C31.018 20.3408 30.9383 20.3424 24.6213 20.3577C20.1109 20.3685 18.1597 20.3544 17.9989 20.3096C17.1973 20.0868 17.1479 18.8965 17.9284 18.6097C18.1178 18.5402 19.1398 18.5295 24.5839 18.5399C30.9412 18.5522 31.0179 18.5537 31.2095 18.6698ZM31.2095 24.2128C31.7647 24.5496 31.7647 25.4309 31.2095 25.7677C31.018 25.8838 30.9383 25.8854 24.6213 25.9006C20.1109 25.9115 18.1597 25.8973 17.9989 25.8526C17.1973 25.6298 17.1479 24.4395 17.9284 24.1527C18.1178 24.0831 19.1398 24.0724 24.5839 24.0829C30.9412 24.0952 31.0179 24.0967 31.2095 24.2128Z" fill="white"/>
</g>
<defs>
<linearGradient id="paint0_linear_1320_4230" x1="24" y1="0" x2="24" y2="48" gradientUnits="userSpaceOnUse">
<stop stop-color="#8FAFFF"/>
<stop offset="1" stop-color="#458BBE"/>
</linearGradient>
<clipPath id="clip0_1320_4230">
<rect width="48" height="48" rx="11" fill="white"/>
</clipPath>
</defs>
</svg>
