<?xml version="1.0" encoding="utf-8"?>
<!-- Generator: Adobe Illustrator 28.0.0, SVG Export Plug-In . SVG Version: 6.00 Build 0)  -->
<svg version="1.1" id="Layer_1" xmlns="http://www.w3.org/2000/svg" xmlns:xlink="http://www.w3.org/1999/xlink" x="0px" y="0px"
	 viewBox="0 0 48 48" style="enable-background:new 0 0 48 48;" xml:space="preserve">
<style type="text/css">
	.st0{clip-path:url(#SVGID_00000060028979966940847000000009989343511431743375_);}
	.st1{fill:url(#SVGID_00000006684521713389962980000014894432201059251869_);}
	.st2{fill-opacity:0.1;}
	.st3{fill-opacity:5.000000e-02;}
	.st4{display:none;fill-rule:evenodd;clip-rule:evenodd;fill:#FFFFFF;}
	
		.st5{clip-path:url(#SVGID_00000060028979966940847000000009989343511431743375_);fill-rule:evenodd;clip-rule:evenodd;fill:#FFFFFF;}
</style>
<g>
	<defs>
		<path id="SVGID_1_" d="M11,0h26c6.1,0,11,4.9,11,11v26c0,6.1-4.9,11-11,11H11C4.9,48,0,43.1,0,37V11C0,4.9,4.9,0,11,0z"/>
	</defs>
	<clipPath id="SVGID_00000120526813260926887420000004996460608507153555_">
		<use xlink:href="#SVGID_1_"  style="overflow:visible;"/>
	</clipPath>
	<g style="clip-path:url(#SVGID_00000120526813260926887420000004996460608507153555_);">
		
			<linearGradient id="SVGID_00000064328784285553919870000015753069606208762299_" gradientUnits="userSpaceOnUse" x1="24" y1="50" x2="24" y2="2" gradientTransform="matrix(1 0 0 -1 0 50)">
			<stop  offset="0" style="stop-color:#F89938"/>
			<stop  offset="1" style="stop-color:#CC3333"/>
		</linearGradient>
		<path style="fill:url(#SVGID_00000064328784285553919870000015753069606208762299_);" d="M11,0h26c6.1,0,11,4.9,11,11v26
			c0,6.1-4.9,11-11,11H11C4.9,48,0,43.1,0,37V11C0,4.9,4.9,0,11,0z"/>
		<circle class="st2" cx="42.5" cy="57.5" r="44.5"/>
		<circle class="st3" cx="54.5" cy="70.5" r="44.5"/>
		<path class="st4" d="M27.3,15.1c-1.4,0.3-2.5,1.2-3.1,2.5c-0.4,0.8-0.5,1.7-0.4,2.8l0,0.2h-0.2c-0.2,0-1.1-0.1-1.6-0.2
			c-2.3-0.4-4.5-1.6-6.2-3.1c-0.4-0.3-0.8-0.8-1.2-1.2c-0.1-0.1-0.1-0.2-0.2-0.2c0,0-0.3,0.6-0.4,0.9c-0.2,0.5-0.2,0.8-0.2,1.5
			c0,0.5,0,0.7,0.1,1.1c0.2,0.8,0.6,1.5,1.2,2.1c0.2,0.2,0.4,0.4,0.5,0.5l0.1,0.1l-0.3,0c-0.5,0-0.9-0.2-1.6-0.5l-0.2-0.1l0,0.4
			c0.1,1.9,1.4,3.5,3.2,4.1l0.3,0.1l-0.2,0C16.8,26,16.1,26,15.8,26c-0.2,0-0.3,0-0.3,0c0,0,0,0.2,0.1,0.3c0.4,1,1.3,1.9,2.3,2.4
			c0.4,0.2,0.7,0.3,1.3,0.4l0.4,0.1l-0.3,0.2c-1,0.7-2.2,1.2-3.3,1.5c-0.7,0.2-1.1,0.2-2,0.2L13,31l0.4,0.2c1.6,1,3.4,1.6,5.4,1.8
			c0.7,0.1,2.4,0,3.2-0.1c2-0.3,3.6-0.9,5.2-2c0.7-0.5,1.1-0.8,1.7-1.4c2.5-2.4,4-5.9,4-9.4l0-0.6l0.4-0.3c0.5-0.3,1.2-1.1,1.6-1.6
			c0.2-0.2,0.3-0.4,0.3-0.4c0,0-0.1,0-0.3,0.1c-0.5,0.2-1.3,0.4-1.8,0.5c-0.1,0-0.2,0-0.3,0.1c-0.1,0-0.1,0,0.1-0.1
			c0.7-0.5,1.3-1.2,1.6-2c0.1-0.1,0.1-0.3,0.1-0.3c0,0-0.2,0.1-0.4,0.2c-0.8,0.4-1.3,0.6-2,0.8l-0.4,0.1l-0.1-0.1
			c-0.2-0.2-0.7-0.6-1-0.8c-0.4-0.2-0.9-0.4-1.3-0.5C28.6,15,27.8,15,27.3,15.1z"/>
	</g>
	
		<path style="clip-path:url(#SVGID_00000120526813260926887420000004996460608507153555_);fill-rule:evenodd;clip-rule:evenodd;fill:#FFFFFF;" d="
		M19.4,11.5c-0.7,0.1-1.5,0.3-2.2,0.6c-2,0.9-3.4,2.8-3.7,4.9c0,0.3-0.1,2.9-0.1,7c0,7.3,0,7.1,0.4,7.9c0.2,0.4,0.4,0.6,0.8,1
		c0.3,0.3,0.6,0.5,0.9,0.6l0.4,0.2l-0.4,0.4c-0.5,0.5-0.6,0.7-0.6,1.1c0,0.9,1,1.5,1.8,1.1c0.1-0.1,0.7-0.5,1.4-1.2l1.2-1.1H24h4.7
		l1.2,1.1c1.3,1.2,1.4,1.3,2,1.3c0.7,0,1.3-0.6,1.3-1.3c0-0.4-0.1-0.6-0.6-1.1l-0.4-0.4l0.4-0.2c0.2-0.1,0.6-0.4,0.9-0.6
		c0.4-0.4,0.6-0.6,0.8-1c0.5-0.9,0.4-0.6,0.4-7.9c0-4.1,0-6.7-0.1-7c-0.2-1.3-0.8-2.5-1.8-3.5c-0.5-0.6-1.1-0.9-1.8-1.3
		c-0.8-0.4-1.5-0.6-2.4-0.6C27.6,11.5,20.3,11.5,19.4,11.5z M29,15.5c0.7,0.3,1.1,0.8,1.4,1.4c0.1,0.3,0.1,0.4,0.1,3.3s0,3-0.1,3.3
		c-0.3,0.8-0.9,1.4-1.8,1.6c-0.2,0.1-1.2,0.1-4.6,0.1c-3.8,0-4.3,0-4.6-0.1c-0.9-0.2-1.5-0.8-1.8-1.6c-0.1-0.3-0.1-0.4-0.1-3.3
		s0-3,0.1-3.3c0.3-0.8,1-1.4,1.8-1.6c0.1,0,2.2,0,4.7,0l4.5,0L29,15.5z M19.4,28c0.7,0.4,0.8,1.3,0.3,1.8c-0.3,0.3-0.6,0.4-1,0.4
		c-0.7,0-1.3-0.5-1.3-1.2c0-0.4,0.1-0.6,0.4-0.9C18.3,27.7,18.9,27.7,19.4,28z M29.6,27.8c0.3,0.1,0.7,0.4,0.8,0.7
		c0.1,0.3,0.1,0.8,0,1.1c-0.2,0.4-0.6,0.7-1.1,0.7c-0.4,0-0.7-0.1-1-0.4C27.4,28.9,28.4,27.5,29.6,27.8z"/>
</g>
</svg>
