<svg width="48" height="48" viewBox="0 0 48 48" fill="none" xmlns="http://www.w3.org/2000/svg">
<g clip-path="url(#clip0_1320_4210)">
<rect width="48" height="48" rx="11" fill="url(#paint0_linear_1320_4210)"/>
<circle cx="42.5" cy="57.5" r="44.5" fill="black" fill-opacity="0.1"/>
<circle cx="54.5" cy="70.5" r="44.5" fill="black" fill-opacity="0.05"/>
<path fill-rule="evenodd" clip-rule="evenodd" d="M16.1073 11.0892C15.7749 11.2195 15.4829 11.4202 14.8539 11.9505C14.5659 12.1932 14.146 12.542 13.9208 12.7255C12.9914 13.4829 12.1408 14.6483 11.6489 15.8385C9.93512 19.9846 11.6291 25.0811 16.576 30.6622C20.0466 34.5779 23.4386 36.9414 26.7256 37.7343C27.7352 37.9778 27.9612 38.0021 29.202 37.9999C30.2316 37.998 30.4775 37.9812 30.9572 37.8801C32.3051 37.5958 33.5351 37.0457 34.4906 36.3C35.276 35.6869 36.3924 34.693 36.6175 34.4064C37.1591 33.7168 37.1257 32.9463 36.5165 32.0764C36.0814 31.4552 34.0961 29.6976 33.1207 29.0703C32.0697 28.3943 31.2379 28.1379 30.4769 28.2556C29.8767 28.3484 29.3551 28.6461 28.4944 29.3875C28.0753 29.7484 27.592 30.1848 27.4203 30.3573C27.2454 30.5328 26.9701 30.7382 26.7944 30.8243C26.514 30.9615 26.4256 30.9779 25.9636 30.9785C25.3993 30.9791 25.0884 30.903 24.5213 30.6257C23.714 30.2308 22.7504 29.4763 21.696 28.4134C19.8025 26.5046 18.489 24.7004 18.0088 23.3488C17.8522 22.9079 17.8305 22.78 17.8295 22.2927C17.8285 21.8308 17.8485 21.6957 17.9489 21.4832C18.1366 21.086 18.3778 20.8285 18.9402 20.4254C19.6595 19.9098 20.5973 19.1022 20.8229 18.804C21.7076 17.6348 21.5244 16.3686 20.1613 14.229C18.9333 12.3016 18.2827 11.5513 17.5034 11.1641C17.1329 10.98 16.4755 10.9447 16.1073 11.0892Z" fill="white"/>
</g>
<defs>
<linearGradient id="paint0_linear_1320_4210" x1="24" y1="0" x2="24" y2="48" gradientUnits="userSpaceOnUse">
<stop stop-color="#8FFFA8"/>
<stop offset="1" stop-color="#5DBE45"/>
</linearGradient>
<clipPath id="clip0_1320_4210">
<rect width="48" height="48" rx="11" fill="white"/>
</clipPath>
</defs>
</svg>
