<svg width="48" height="48" viewBox="0 0 48 48" fill="none" xmlns="http://www.w3.org/2000/svg">
    <g clip-path="url(#clip0_5007_2)">
        <rect width="48" height="48" rx="11" fill="url(#paint0_linear_5007_2)" />
        <circle cx="42.5" cy="57.5" r="44.5" fill="black" fill-opacity="0.1" />
        <circle cx="54.5" cy="70.5" r="44.5" fill="black" fill-opacity="0.05" />
        <path fill-rule="evenodd" clip-rule="evenodd"
            d="M22.3303 12.0551C22.1406 12.1389 21.9466 12.3754 21.8911 12.5906C21.8664 12.6862 21.7152 13.3031 21.5551 13.9615C21.3948 14.6198 21.247 15.1909 21.2266 15.2306C21.2061 15.2703 21.045 15.3532 20.8687 15.4148C20.6923 15.4765 20.3474 15.6193 20.1022 15.7324C19.857 15.8455 19.6245 15.9293 19.5855 15.9188C19.5466 15.9082 19.022 15.6015 18.42 15.2372C17.8179 14.8729 17.2539 14.5615 17.1667 14.5452C16.833 14.4826 16.7102 14.5714 15.5828 15.689C14.9961 16.2707 14.4811 16.8201 14.4386 16.9097C14.2784 17.247 14.3372 17.4022 15.1141 18.6949L15.8248 19.8773L15.6701 20.217C15.5851 20.4038 15.4642 20.7017 15.4016 20.8792C15.3294 21.0834 15.2532 21.2169 15.1937 21.2432C15.1421 21.266 14.5002 21.4302 13.7675 21.608C12.4183 21.9353 12.2884 21.9846 12.0968 22.241C12.0034 22.3662 12 22.4275 12 24.0067C12 25.5859 12.0034 25.6472 12.0968 25.7724C12.2871 26.0271 12.418 26.0766 13.7661 26.4043C14.4996 26.5827 15.1425 26.7472 15.1947 26.77C15.2558 26.7966 15.3298 26.9263 15.4025 27.1341C15.4646 27.3116 15.6046 27.6501 15.7137 27.8864L15.912 28.316L15.2758 29.3781C14.749 30.2574 14.6359 30.4789 14.6179 30.6657C14.6036 30.8151 14.6206 30.9377 14.6684 31.0283C14.788 31.2551 16.9138 33.3369 17.0635 33.3738C17.3793 33.4518 17.5611 33.3772 18.642 32.7269L19.695 32.0933L20.1214 32.2904C20.356 32.3988 20.6932 32.5385 20.8707 32.6008C21.0754 32.6727 21.2087 32.7485 21.235 32.808C21.2578 32.8597 21.4231 33.5025 21.6023 34.2366C21.9307 35.5826 21.9808 35.7148 22.2333 35.9032C22.3586 35.9966 22.4199 36 24 36C25.5801 36 25.6414 35.9966 25.7667 35.9032C26.0192 35.7148 26.0693 35.5826 26.3977 34.2366C26.5769 33.5025 26.7421 32.8593 26.7648 32.8071C26.7914 32.7461 26.9217 32.6717 27.1291 32.5988C27.3067 32.5365 27.6506 32.3936 27.8933 32.2813L28.3346 32.0772L29.4385 32.736C30.4794 33.3572 30.5564 33.3948 30.7866 33.3948C31.1146 33.3948 31.1873 33.337 32.3889 32.1214C33.4306 31.0675 33.5286 30.9303 33.4684 30.6105C33.453 30.5283 33.1433 29.9664 32.7802 29.3619L32.1201 28.2627L32.3297 27.7894C32.4449 27.529 32.5782 27.2025 32.6258 27.0638C32.6773 26.9136 32.7504 26.7947 32.8063 26.77C32.8579 26.7472 33.5004 26.5827 34.2339 26.4043C35.582 26.0766 35.7129 26.0271 35.9032 25.7724C35.9966 25.6472 36 25.5859 36 24.0067C36 22.4275 35.9966 22.3662 35.9032 22.241C35.7129 21.9863 35.582 21.9368 34.2339 21.6091C33.5004 21.4308 32.8579 21.2661 32.8063 21.2433C32.7468 21.2169 32.6707 21.0835 32.5986 20.8792C32.5361 20.7017 32.4028 20.3776 32.3024 20.1588C32.202 19.9399 32.129 19.7257 32.1403 19.6826C32.1516 19.6395 32.4283 19.1592 32.7553 18.6153C33.4624 17.4389 33.5044 17.348 33.4614 17.0888C33.4325 16.9142 33.3253 16.7904 32.3664 15.8234C31.7817 15.2339 31.2413 14.7069 31.1654 14.6522C31.0694 14.583 30.9545 14.5522 30.7867 14.5505C30.5588 14.5484 30.486 14.5841 29.4295 15.2171C28.8156 15.585 28.296 15.886 28.2748 15.886C28.2537 15.886 28.0599 15.8051 27.8442 15.7063C27.6285 15.6074 27.3068 15.4754 27.1293 15.4129C26.9247 15.3408 26.7913 15.2649 26.765 15.2054C26.7422 15.1537 26.578 14.5123 26.4 13.7799C26.0725 12.4317 26.0233 12.3018 25.7667 12.1102C25.6425 12.0175 25.5707 12.013 24.0553 12.0026C22.8118 11.9941 22.443 12.0053 22.3303 12.0551ZM24.672 19.1284C26.6193 19.4194 28.193 20.7905 28.7356 22.6689C29.4839 25.2594 27.9596 27.9834 25.3386 28.7397C22.7466 29.4875 20.0211 27.9641 19.2644 25.3445C18.3734 22.2599 20.7181 19.1226 23.944 19.0828C24.1587 19.0801 24.4862 19.1007 24.672 19.1284Z"
            fill="white" />
    </g>
    <defs>
        <linearGradient id="paint0_linear_5007_2" x1="24" y1="0" x2="24" y2="48"
            gradientUnits="userSpaceOnUse">
            <stop stop-color="#CECECE" />
            <stop offset="1" stop-color="#5C5C5C" />
        </linearGradient>
        <clipPath id="clip0_5007_2">
            <rect width="48" height="48" rx="11" fill="white" />
        </clipPath>
    </defs>
</svg>