<svg width="48" height="48" viewBox="0 0 48 48" fill="none" xmlns="http://www.w3.org/2000/svg">
<g clip-path="url(#clip0_1125_164)">
<rect width="48" height="48" rx="11" fill="url(#paint0_linear_1125_164)"/>
<circle cx="42.5" cy="57.5" r="44.5" fill="black" fill-opacity="0.1"/>
<circle cx="54.5" cy="70.5" r="44.5" fill="black" fill-opacity="0.05"/>
<path fill-rule="evenodd" clip-rule="evenodd" d="M27.3128 15.0822C25.9126 15.3879 24.806 16.2558 24.1742 17.5436C23.7617 18.3845 23.6342 19.266 23.7711 20.3315L23.7976 20.5372H23.608C23.3671 20.5372 22.4906 20.4278 22.0551 20.3434C19.7552 19.8977 17.5572 18.7834 15.8497 17.1978C15.4886 16.8624 15.0129 16.3666 14.6817 15.9802C14.6056 15.8914 14.5348 15.8187 14.5245 15.8187C14.4924 15.8187 14.2353 16.3889 14.1341 16.6845C13.9675 17.1709 13.9168 17.5334 13.922 18.1996C13.9263 18.7334 13.9442 18.8913 14.0416 19.2551C14.2622 20.0782 14.6329 20.7256 15.2234 21.3192C15.4274 21.5242 15.6523 21.7338 15.7232 21.7851L15.8522 21.8783L15.5942 21.8526C15.0976 21.803 14.6707 21.6769 14.0074 21.3839L13.8397 21.3098L13.8692 21.7035C14.0105 23.5872 15.3093 25.2278 17.0769 25.7554L17.3984 25.8514L17.1629 25.898C16.7643 25.977 16.0882 26.0023 15.7715 25.9502C15.6088 25.9234 15.4672 25.9101 15.4567 25.9207C15.4462 25.9312 15.4901 26.0732 15.5541 26.2362C15.9665 27.2857 16.8169 28.1832 17.8652 28.6757C18.2957 28.8779 18.6041 28.9698 19.1581 29.0613L19.5827 29.1315L19.3101 29.3255C18.3232 30.0277 17.1547 30.544 15.9812 30.7963C15.2704 30.9491 14.8699 30.9863 13.9316 30.9869L13 30.9875L13.351 31.2C14.9504 32.1681 16.7857 32.7688 18.7411 32.964C19.479 33.0377 21.1836 32.9925 21.9158 32.8799C23.8809 32.5776 25.5616 31.934 27.0866 30.8999C27.7666 30.4388 28.162 30.1139 28.7913 29.4991C31.2942 27.0538 32.7606 23.5965 32.7762 20.1043L32.7789 19.4766L33.1463 19.1952C33.6 18.8477 34.3227 18.095 34.719 17.5572C34.8829 17.3347 35.0091 17.1448 34.9995 17.1351C34.9899 17.1255 34.8608 17.1671 34.7128 17.2277C34.2362 17.4226 33.3767 17.6699 32.9248 17.7422C32.8302 17.7573 32.6947 17.7804 32.6238 17.7934C32.5072 17.8148 32.5155 17.8027 32.7098 17.6679C33.3948 17.1926 33.9969 16.4265 34.3026 15.6411C34.3605 15.4925 34.4003 15.3632 34.3909 15.3538C34.3816 15.3444 34.1834 15.4337 33.9504 15.5522C33.1995 15.934 32.6388 16.1473 31.9491 16.3132L31.5325 16.4135L31.4116 16.2859C31.209 16.0723 30.7067 15.7052 30.3661 15.5217C29.9881 15.3183 29.4917 15.1441 29.0437 15.0578C28.5968 14.9717 27.765 14.9834 27.3128 15.0822Z" fill="white"/>
</g>
<defs>
<linearGradient id="paint0_linear_1125_164" x1="24" y1="0" x2="24" y2="48" gradientUnits="userSpaceOnUse">
<stop stop-color="#FF9D8F"/>
<stop offset="1" stop-color="#BE4545"/>
</linearGradient>
<clipPath id="clip0_1125_164">
<rect width="48" height="48" rx="11" fill="white"/>
</clipPath>
</defs>
</svg>
