<svg width="48" height="48" viewBox="0 0 48 48" fill="none" xmlns="http://www.w3.org/2000/svg">
<g clip-path="url(#clip0_1767_1090)">
<rect width="48" height="48" rx="11" fill="url(#paint0_linear_1767_1090)"/>
<circle cx="42.5" cy="57.5" r="44.5" fill="black" fill-opacity="0.1"/>
<circle cx="54.5" cy="70.5" r="44.5" fill="black" fill-opacity="0.05"/>
<path fill-rule="evenodd" clip-rule="evenodd" d="M21.8163 12.0496C21.1506 12.177 20.5053 12.6609 20.2266 13.2415C20.0239 13.6639 19.9649 13.9928 19.9649 14.7003V15.2846H16.9304C13.5289 15.2846 13.3982 15.2953 12.6876 15.6343C12.1696 15.8814 11.6231 16.4033 11.3579 16.9041C11.027 17.5288 11.0001 17.7153 11.0001 19.3796V20.8634L17.6843 23.0356C21.3607 24.2303 24.4278 25.2077 24.5 25.2077C24.5722 25.2077 27.6393 24.2303 31.3157 23.0356L37.9999 20.8634V19.3796C37.9999 17.7153 37.973 17.5288 37.6421 16.9041C37.3769 16.4033 36.8304 15.8814 36.3124 15.6343C35.6018 15.2953 35.4711 15.2846 32.0696 15.2846H29.0351V14.7003C29.0351 13.9928 28.9761 13.6639 28.7734 13.2415C28.4859 12.6426 27.8512 12.1775 27.1425 12.0465C26.7974 11.9827 22.1516 11.9854 21.8163 12.0496ZM26.7148 14.7704V15.2846H24.5H22.2852V14.7704V14.2562H24.5H26.7148V14.7704ZM11.0001 26.987C11.0001 31.8792 10.9868 31.6796 11.3579 32.3802C11.6231 32.8809 12.1696 33.4029 12.6876 33.65C13.4683 34.0224 12.7031 33.9997 24.5 33.9997C36.2969 33.9997 35.5317 34.0224 36.3124 33.65C36.8304 33.4029 37.3769 32.8809 37.6421 32.3802C38.0132 31.6796 37.9999 31.8792 37.9999 26.987C37.9999 24.5662 37.982 22.5855 37.9601 22.5855C37.9382 22.5855 35.0372 23.5264 31.5134 24.6764L25.1064 26.7673H24.5H23.8936L17.4866 24.6764C13.9628 23.5264 11.0618 22.5855 11.0399 22.5855C11.018 22.5855 11.0001 24.5662 11.0001 26.987Z" fill="white"/>
</g>
<defs>
<linearGradient id="paint0_linear_1767_1090" x1="24" y1="0" x2="24" y2="48" gradientUnits="userSpaceOnUse">
<stop stop-color="#DED969"/>
<stop offset="1" stop-color="#D3CD2D"/>
</linearGradient>
<clipPath id="clip0_1767_1090">
<rect width="48" height="48" rx="11" fill="white"/>
</clipPath>
</defs>
</svg>
